<svg height="82" width="287">
    <rect width="285" height="80" rx="8" ry="8" style="fill:rgb(255,255,255)" /> 
    
    <!-- Add circles and text for visit type -->
    <circle cx="18" cy="16" r="7" stroke="black" stroke-width="1.7" fill="#FF0000" />
        <text x="30" y="20">Stayed a Few Days</text>
    <circle cx="150" cy="16" r="7" stroke="black" stroke-width="1.7" fill="#CEFA05" />
        <text x="161" y="20">Visited</text>
    <circle cx="220" cy="16" r="7" stroke="black" stroke-width="1.7" fill="#000000" />
        <text x="232" y="20">Waypoint</text>

    <!-- Add lines and text for transport mode -->
    <line x1="10" y1="38" x2="45" y2="38" style="stroke:#000000" />
        <text x="51" y="41">Car</text>
    <line x1="10" y1="52" x2="45" y2="52" style="stroke:#E6194B" />
        <text x="51" y="55">Bus</text>
    <line x1="90" y1="38" x2="125" y2="38" style="stroke:#3CB44B" />
        <text x="131" y="41">Plane</text>
    <line x1="90" y1="52" x2="125" y2="52" style="stroke:#a9a9a9" />
        <text x="131" y="55">Train</text>
    <line x1="175" y1="38" x2="210" y2="38" style="stroke:#4363D8" />
        <text x="216" y="41">Ferry or Ship</text>
    <line x1="175" y1="52" x2="210" y2="52" style="stroke:#F032E6" />
        <text x="216" y="55">Campervan</text>
   	<line x1="50" y1="66" x2="85" y2="66" style="stroke:#9A6324" />
        <text x="91" y="69">Motorbike</text>
	<line x1="150" y1="66" x2="195" y2="66" style="stroke:#42D4F4" />
        <text x="201" y="69">Cablecar</text>
</svg>

